<svg xmlns="http://www.w3.org/2000/svg" enable-background="new 0 0 1000 1000" viewBox="0 0 1000 1000"><path fill="#40bd77" d="M0 0h1000v1000H0z"/><path fill="#1c1c1c" d="M582.167 613.552H414.298a5.5 5.5 0 1 1 0-11h167.869a5.5 5.5 0 0 1 0 11zM699.5 655.532H347.733a5.5 5.5 0 1 1 0-11H699.5a5.5 5.5 0 1 1 0 11z" opacity=".32"/><path fill="#383939" d="M674.232 505.052h-352V316.719c0-8.652 7.014-15.667 15.667-15.667h320.136c8.909 0 16.197 7.289 16.197 16.197v187.803z"/><path fill="#3a3a3a" d="M328.232 490.053v-174a9 9 0 0 1 9-9h322a9 9 0 0 1 9 9v174a9 9 0 0 1-9 9h-322a9 9 0 0 1-9-9z"/><path fill="none" stroke="#383939" stroke-linecap="round" stroke-linejoin="round" stroke-miterlimit="10" stroke-width="6" d="M674.232 505.052h-352V316.719c0-8.652 7.014-15.667 15.667-15.667h320.136c8.909 0 16.197 7.289 16.197 16.197v187.803z"/><path fill="#4f4f4f" d="M416.232 247.053h164v312h-164z" transform="rotate(90 498.232 403.053)"/><path fill="#d4e8dc" d="M657.899 553.052H338.035c-8.728 0-15.803-7.075-15.803-15.803v-32.197h352v31.667c0 8.983-7.35 16.333-16.333 16.333z"/><path fill="#ebf2ee" d="M338.035 545.053c-4.302 0-7.802-3.5-7.802-7.803v-28.917h336v28.385c0 4.596-3.738 8.334-8.333 8.334H338.035z"/><path fill="none" stroke="#383939" stroke-linecap="round" stroke-linejoin="round" stroke-miterlimit="10" stroke-width="6" d="M657.899 553.052H338.035c-8.728 0-15.803-7.075-15.803-15.803v-32.197h352v31.667c0 8.983-7.35 16.333-16.333 16.333z"/><path fill="#cad8d0" d="M551.232 589.052h-106l15.684-36h74.633z"/><path fill="#a1ada6" d="m542.519 569.052-6.97-16h-74.633l-6.971 16z"/><path fill="none" stroke="#383939" stroke-linecap="round" stroke-linejoin="round" stroke-miterlimit="10" stroke-width="6" d="M551.232 589.052h-106l15.684-36h74.633z"/><path fill="#daede2" d="M571.232 605.052h-146l1.474-5.271c1.77-6.33 7.736-10.729 14.55-10.729h113.952c6.814 0 12.78 4.399 14.55 10.729l1.474 5.271z"/><path fill="none" stroke="#383939" stroke-linecap="round" stroke-linejoin="round" stroke-miterlimit="10" stroke-width="6" d="M571.232 605.052h-146l1.474-5.271c1.77-6.33 7.736-10.729 14.55-10.729h113.952c6.814 0 12.78 4.399 14.55 10.729l1.474 5.271z"/><path fill="#daede2" d="M368.073 646.032h253.681a6.75 6.75 0 1 0 0-13.5H368.073a6.751 6.751 0 0 0 0 13.5z"/><path fill="none" stroke="#383939" stroke-linecap="round" stroke-linejoin="round" stroke-miterlimit="10" stroke-width="6" d="M368.073 646.032h253.681a6.75 6.75 0 0 0 6.75-6.75h0a6.75 6.75 0 0 0-6.75-6.75H368.073a6.75 6.75 0 0 0-6.75 6.75h0a6.751 6.751 0 0 0 6.75 6.75z"/><path fill="#383939" d="M445.91 632.533h122v-4a6 6 0 0 0-6-6h-110a6 6 0 0 0-6 6v4zM421.66 632.533h21.249v-4a6 6 0 0 0-6-6h-9.249a6 6 0 0 0-6 6v4zM397.014 632.533h21.249v-4a6 6 0 0 0-6-6h-9.249a6 6 0 0 0-6 6v4zM596.211 632.533h21.249v-4a6 6 0 0 0-6-6h-9.249a6 6 0 0 0-6 6v4zM571.565 632.533h21.249v-4a6 6 0 0 0-6-6h-9.249a6 6 0 0 0-6 6v4zM372.368 632.533h21.249v-4a6 6 0 0 0-6-6h-9.249a6 6 0 0 0-6 6v4z"/><path fill="#daede2" d="M688.667 646.032c-.061-7.639-8.444-15.249-23.061-15.249-14.617 0-23 7.61-23.061 15.249h46.122z"/><path fill="none" stroke="#383939" stroke-linecap="round" stroke-linejoin="round" stroke-miterlimit="10" stroke-width="6" d="M688.667 646.032c-.061-7.639-8.444-15.249-23.061-15.249-14.617 0-23 7.61-23.061 15.249h46.122z"/><path fill="#383939" d="M512.389 526.599c-4.597 0-8.386-3.419-8.988-7.851-.06-.001-.117-.009-.177-.009-5.696 0-10.313 4.617-10.313 10.313s4.617 10.313 10.313 10.313 10.313-4.617 10.313-10.313c0-.862-.117-1.695-.317-2.495a9.1 9.1 0 0 1-.831.042z"/><path fill="#e7f7f7" d="M509.08 401.485a5.798 5.798 0 0 1-5.742-5.016c-.038-.001-.075-.006-.113-.006a6.589 6.589 0 1 0 6.589 6.589c0-.551-.075-1.083-.202-1.594a5.866 5.866 0 0 1-.532.027z"/><path fill="#c2d3c9" d="M377.634 485.053h38.159l83.562-164h-38.159zM446.695 485.053l83.562-164h-14.283l-83.562 164z" opacity=".16"/><path fill="#c2d3c9" d="M521.5 428h-40.166a1.5 1.5 0 1 1 0-3H521.5a1.5 1.5 0 1 1 0 3z" opacity=".38"/><path fill="#c2d3c9" d="M495.188 425h-13.853a1.5 1.5 0 1 0 0 3h13.853v-3z"/></svg>